<svg xmlns="http://www.w3.org/2000/svg" viewBox="0 0 48 48"><defs><style>.cls-1{fill:#7d649c}.cls-6{fill:#bceaec}.cls-7{fill:#f16d8f}.cls-9{fill:#f6fafd}</style></defs><g id="_06-balloon" data-name="06-balloon"><path class="cls-1" d="m18.014 38-1-7.584L18.986 30l1 7.584-1.972.416zM29.986 38l-1.972-.416 1-7.584 1.972.416-1 7.584z"/><path d="M43 11.385C43 4.462 38.25 1 33.5 1S25.583 4.462 24 9.654C22.417 4.462 19.25 1 14.5 1S5 4.462 5 11.385C5 21.205 11.781 27.117 17.294 31h13.412C36.151 27.117 43 21.205 43 11.385z" style="fill:#f280a0"/><path style="fill:#a499d6" d="M26 34h-4l-1-3h6l-1 3z"/><rect x="16" y="37" width="16" height="4" rx="2" ry="2" style="fill:#bcc0ff"/><path style="fill:#ffdddf" d="M29 47H19l-1-6h12l-1 6z"/><path class="cls-6" d="M45 36a2 2 0 0 0-4 0 2 2 0 0 0 0 4h4a2 2 0 0 0 0-4zM7 28a2 2 0 0 0-4 0 2 2 0 0 0 0 4h4a2 2 0 0 0 0-4z"/><path class="cls-7" d="M9 11.385c0-5.929 3.485-9.311 7.469-10.162A8.89 8.89 0 0 0 14.5 1C9.75 1 5 4.462 5 11.385 5 21.205 11.781 27.117 17.294 31h4C15.781 27.117 9 21.205 9 11.385z"/><path d="M33.5 1a8.46 8.46 0 0 0-6.655 3.151A9.062 9.062 0 0 1 28.5 4C33.25 4 38 7.462 38 14.385c0 7.582-4.084 12.827-8.451 16.615h1.157C36.151 27.117 43 21.205 43 11.385 43 4.462 38.25 1 33.5 1z" style="fill:#f89bae"/><path class="cls-7" d="M24 22a4.366 4.366 0 0 1 2.538-2.746A4.8 4.8 0 0 0 25 19a3.938 3.938 0 0 0-2.5.825A4.856 4.856 0 0 1 24 22zM16 22.6a3.411 3.411 0 0 1 2.462-3.346A4.194 4.194 0 0 0 17 19c-2 0-4 1.2-4 3.6 0 5.4 7.333 8.4 8 8.4a5.117 5.117 0 0 0 1.636-.48C20.329 29.48 16 26.753 16 22.6z"/><ellipse class="cls-9" cx="36" cy="7" rx="1.65" ry="2.297" transform="rotate(-45.02 36 7)"/><ellipse class="cls-9" cx="37" cy="11" rx=".825" ry="1.148" transform="rotate(-45.02 37 11)"/><path d="M18 39h12a1.994 1.994 0 0 1 1.723 1A1.988 1.988 0 0 0 30 37H18a1.988 1.988 0 0 0-1.723 3A1.994 1.994 0 0 1 18 39z" style="fill:#d1cbfa"/><path style="fill:#fabbc3" d="M30 41H18l.333 2h11.334L30 41z"/><path d="M24 31c-.667 0-8-3-8-8.4 0-2.4 2-3.6 4-3.6a4.141 4.141 0 0 1 4 3 4.141 4.141 0 0 1 4-3c2 0 4 1.2 4 3.6 0 5.4-6.667 8.4-8 8.4z" style="fill:#ffbafe"/><path d="M18 21.6a3.321 3.321 0 0 1 1.042-2.494A3.494 3.494 0 0 0 16 22.6c0 5.4 7.333 8.4 8 8.4a8.454 8.454 0 0 0 3.255-1.321A4.14 4.14 0 0 1 26 30c-.667 0-8-3-8-8.4z" style="fill:#faaafe"/><path d="M28 19a3.889 3.889 0 0 0-2.851 1.15A3.461 3.461 0 0 1 28 23.6c0 3.356-2.575 5.784-4.845 7.142A3.5 3.5 0 0 0 24 31c1.333 0 8-3 8-8.4 0-2.4-2-3.6-4-3.6z" style="fill:#fac8fc"/><ellipse class="cls-9" cx="28" cy="23" rx=".825" ry="1.148" transform="rotate(-45.02 28 23)"/><ellipse class="cls-9" cx="27.746" cy="24.5" rx=".413" ry=".574" transform="rotate(-45.02 27.746 24.5)"/></g></svg>