<svg xmlns="http://www.w3.org/2000/svg" xml:space="preserve" width="2048" height="2048" style="shape-rendering:geometricPrecision;text-rendering:geometricPrecision;image-rendering:optimizeQuality;fill-rule:evenodd;clip-rule:evenodd"><defs><style>.fil1{fill:#888;fill-rule:nonzero}</style></defs><g id="Layer_x0020_1"><g id="_423708848"><path id="_423708776" d="M1639.79 837.046c4.383-1.302 9.39-1.107 14.046-.01 6.405 1.508 12.808 4.433 18.285 8.056 17.266 11.415 25.726 29.598 23.547 50.233l-79.543 752.573c-2.924 27.664-27.793 47.975-55.496 45.14-27.718-2.835-48.12-27.817-45.19-55.555l73.747-697.725c-193.295 3.372-385.203-18.022-573.64-60.919L931.7 1672.132c-2.923 27.665-27.792 47.977-55.496 45.14-27.716-2.835-48.117-27.816-45.19-55.551l89.844-850.881c2.926-27.72 28.032-48.024 55.751-45.093 3.14.333 6.186 1.006 9.222 1.854 212.985 59.379 433.487 78.55 653.96 69.445z" style="fill:#9b9b9c"/><path id="_423708728" class="fil1" d="M1561.36 1546.17c35.31 30.722 54.883 71.165 50.352 114.05-4.536 42.901-32.187 78.402-73.224 101.108-80.551 44.576-198.964 32.173-268.438-28.274-76.343-66.425-65.604-166.198 22.872-215.158 80.55-44.578 198.965-32.174 268.438 28.274z"/><path id="_423708992" class="fil1" d="M931.06 1664.17c-4.535 42.901-32.186 78.402-73.224 101.108-80.55 44.576-198.964 32.173-268.439-28.274-76.342-66.424-65.603-166.198 22.872-215.158 114.952-63.613 334.121-2.762 318.79 142.324z"/></g><g id="_423708872"><path id="_423708968" d="M663.844 302.612c6.697-13.407 21.002-22.192 36.856-21.087 7.314.51 14.165 3.165 20.1 7.428C777.95 329.99 826.952 384.964 872.767 438c29.93 34.646 60.273 70.133 94.169 100.976 29.298 26.658 62.892 51.106 101.1 63.017 32.127 10.015 64.087 10.067 96.597 1.675 20.39-5.263 41.256 7.074 46.5 27.463 5.243 20.384-7.08 41.225-27.455 46.485-53.323 13.763-105.408 12.28-156.83-8.008-85.602-33.775-153.084-113.809-211.852-181.84-26.79-31.012-54.189-63.131-84.062-91.762l-61.781 885.96c-1.462 20.96-19.613 36.856-40.59 35.447-20.99-1.41-36.945-19.627-35.48-40.629 5.858-84.008 65.283-974.542 70.762-974.173z" style="fill:#757575"/><path id="_423708560" d="M470.866 1103.21c53.661-3.215 103.553 10.055 140.832 34.104 39.456 25.454 65.165 62.961 67.772 106.485 2.606 43.525-18.444 83.833-54.58 113.812-34.143 28.327-82.094 47.456-135.756 50.668-53.661 3.214-103.553-10.054-140.832-34.105-39.455-25.453-65.165-62.96-67.77-106.485-2.607-43.524 18.442-83.831 54.578-113.812 34.142-28.326 82.095-47.454 135.756-50.667z" style="fill:#545454;fill-rule:nonzero"/></g></g><path style="fill:none" d="M0 0h2048v2048H0z"/></svg>