<svg version="1.1" id="Layer_1" xmlns="http://www.w3.org/2000/svg" x="0" y="0" viewBox="0 0 64 64" style="enable-background:new 0 0 64 64" xml:space="preserve"><style>.st1{fill:#78909c;stroke:#37474f;stroke-linecap:round;stroke-linejoin:round;stroke-miterlimit:10}</style><path d="M30 7C15.1 7 3 19.1 3 34c0 7.9 3.4 14.9 8.8 19.9L7.9 57H3v4h27c14.9 0 27-12.1 27-27S44.9 7 30 7z" style="fill:#ffa000;stroke:#37474f;stroke-linecap:round;stroke-linejoin:round;stroke-miterlimit:10"/><path d="M30 3C15.1 3 3 15.1 3 30c0 7.9 3.4 14.9 8.8 19.9L3 57h27c14.9 0 27-12.1 27-27S44.9 3 30 3z" style="fill:#ffca28;stroke:#37474f;stroke-linecap:round;stroke-linejoin:round;stroke-miterlimit:10"/><path d="M5 30C5 16.2 16.2 5 30 5" style="fill:none;stroke:#ffe082;stroke-linecap:round;stroke-linejoin:round;stroke-miterlimit:10"/><path d="M30 45.9c5.6 0 10.2-3.8 11.6-8.9.4-1.6-.8-3.1-2.4-3.1H20.8c-1.6 0-2.8 1.5-2.4 3.1 1.4 5.1 6 8.9 11.6 8.9z" style="fill:#eceff1;stroke:#37474f;stroke-linecap:round;stroke-linejoin:round;stroke-miterlimit:10"/><path class="st1" d="M24.8 25.9c-.4 0-.8-.1-1.1-.4-2.3-2.3-6.1-2.3-8.5 0-.6.6-1.5.6-2.1 0-.6-.6-.6-1.5 0-2.1 3.5-3.5 9.2-3.5 12.7 0 .6.6.6 1.5 0 2.1-.3.2-.7.4-1 .4zM45.9 25.9c-.4 0-.8-.1-1.1-.4-2.3-2.3-6.1-2.3-8.5 0-.6.6-1.5.6-2.1 0-.6-.6-.6-1.5 0-2.1 3.5-3.5 9.2-3.5 12.7 0 .6.6.6 1.5 0 2.1-.3.2-.7.4-1 .4z"/><path d="M51.2 45.9C50 44.7 48.4 44 46.7 44c-1.7 0-3.3.7-4.5 1.8-1.2 1.2-1.8 2.8-1.8 4.5 0 1.3.4 2.5 1.1 3.5 3.8-1.8 7.2-4.5 9.7-7.9z" style="fill:#ffa000"/><path d="M52.8 45.4c-2.7 3.9-6.3 7.1-10.6 9.3l.1.1 1.7 1.7c4.6-2.8 8.2-7 10.4-12-.6.2-1.2.5-1.6.9z" style="fill:#ff6f00"/><path d="m53.6 47.3-1.9 1.9-1.9-1.9c-1.7-1.7-4.4-1.7-6.1 0h0c-1.7 1.7-1.7 4.4 0 6.1l7.3 7.3c.4.4 1 .4 1.4 0l7.3-7.3c1.7-1.7 1.7-4.4 0-6.1h0c-1.6-1.7-4.4-1.7-6.1 0z" style="fill:#ef5350;stroke:#37474f;stroke-linecap:round;stroke-linejoin:round;stroke-miterlimit:10"/><path d="M44.4 50.3c0-.6.2-1.2.7-1.6.4-.4 1-.7 1.6-.7" style="fill:none;stroke:#ef9a9a;stroke-linecap:round;stroke-linejoin:round;stroke-miterlimit:10"/></svg>